bw_sq_120_02
version=1
nRows=16
nColumns=46
inDegrees=yes
endheader
time	ground_force3_vx	ground_force3_vy	ground_force3_vz	ground_force3_px	ground_force3_py	ground_force3_pz	ground_torque3_x	ground_torque3_y	ground_torque3_z	ground_force5_vx	ground_force5_vy	ground_force5_vz	ground_force5_px	ground_force5_py	ground_force5_pz	ground_torque5_x	ground_torque5_y	ground_torque5_z	ground_force4_vx	ground_force4_vy	ground_force4_vz	ground_force4_px	ground_force4_py	ground_force4_pz	ground_torque4_x	ground_torque4_y	ground_torque4_z	ground_force1_vx	ground_force1_vy	ground_force1_vz	ground_force1_px	ground_force1_py	ground_force1_pz	ground_torque1_x	ground_torque1_y	ground_torque1_z	ground_force2_vx	ground_force2_vy	ground_force2_vz	ground_force2_px	ground_force2_py	ground_force2_pz	ground_torque2_x	ground_torque2_y	ground_torque2_z
1.967000	-0.000000	-0.000000	0.000000	0.200000	0.000000	-0.300000	0.000000	0.000000	-0.000000	-2.946152	380.182373	25.320854	0.215775	0.000000	-1.428893	0.000015	-5.222909	0.000009	-0.031379	345.154144	-34.351147	0.216570	0.000000	-0.954643	0.000013	5.585412	0.000004	-0.000000	-0.000000	0.000000	0.200000	0.000000	0.904000	0.000000	0.000000	-0.000000	-0.000000	-0.000000	0.000000	0.400000	0.000000	0.302000	0.000000	0.000000	-0.000000	
1.968000	-0.000000	-0.000000	0.000000	0.200000	0.000000	-0.300000	0.000000	0.000000	-0.000000	-2.784940	381.779816	25.482065	0.215840	0.000000	-1.429357	0.000042	-5.188066	0.000003	-0.839681	346.755981	-34.674255	0.216735	0.000000	-0.953548	0.000011	5.630931	0.000006	-0.000000	-0.000000	0.000000	0.200000	0.000000	0.904000	0.000000	0.000000	-0.000000	-0.000000	-0.000000	0.000000	0.400000	0.000000	0.302000	0.000000	0.000000	-0.000000	
1.969000	-0.000000	-0.000000	0.000000	0.200000	0.000000	-0.300000	0.000000	0.000000	-0.000000	-2.302829	381.777496	24.999109	0.215716	0.000000	-1.429742	0.000014	-5.140500	0.000003	-0.192421	345.790588	-34.995323	0.217211	0.000000	-0.953554	0.000012	5.658757	-0.000000	-0.000000	-0.000000	0.000000	0.200000	0.000000	0.904000	0.000000	0.000000	-0.000000	-0.000000	-0.000000	0.000000	0.400000	0.000000	0.302000	0.000000	0.000000	-0.000000	
1.970000	-0.000000	-0.000000	0.000000	0.200000	0.000000	-0.300000	0.000000	0.000000	-0.000000	-2.302320	382.097015	25.000124	0.216188	0.000000	-1.429655	0.000023	-5.101160	0.000005	-0.189333	345.468658	-35.318432	0.217302	0.000000	-0.955247	0.000012	5.758361	0.000002	-0.000000	-0.000000	0.000000	0.200000	0.000000	0.904000	0.000000	0.000000	-0.000000	-0.000000	-0.000000	0.000000	0.400000	0.000000	0.302000	0.000000	0.000000	-0.000000	
1.971000	-0.000000	-0.000000	0.000000	0.200000	0.000000	-0.300000	0.000000	0.000000	-0.000000	-1.496765	379.862488	25.641924	0.216052	0.000000	-1.428303	0.000006	-5.262652	0.000006	-0.192421	345.155487	-34.350128	0.217010	0.000000	-0.953918	0.000026	5.679715	0.000004	-0.000000	-0.000000	0.000000	0.200000	0.000000	0.904000	0.000000	0.000000	-0.000000	-0.000000	-0.000000	0.000000	0.400000	0.000000	0.302000	0.000000	0.000000	-0.000000	
1.972000	-0.000000	-0.000000	0.000000	0.200000	0.000000	-0.300000	0.000000	0.000000	-0.000000	-2.140089	381.137360	25.641924	0.215365	0.000000	-1.429526	0.000031	-5.355315	0.000004	-0.353464	344.831207	-34.512703	0.217095	0.000000	-0.954883	0.000026	5.668273	0.000004	-0.000000	-0.000000	0.000000	0.200000	0.000000	0.904000	0.000000	0.000000	-0.000000	-0.000000	-0.000000	0.000000	0.400000	0.000000	0.302000	0.000000	0.000000	-0.000000	
1.973000	-0.000000	-0.000000	0.000000	0.200000	0.000000	-0.300000	0.000000	0.000000	-0.000000	-1.335553	380.819824	25.802458	0.215748	0.000000	-1.428632	0.000042	-5.296255	0.000002	-0.841225	345.469666	-34.515762	0.217475	0.000000	-0.953353	0.000009	5.492460	0.000005	-0.000000	-0.000000	0.000000	0.200000	0.000000	0.904000	0.000000	0.000000	-0.000000	-0.000000	-0.000000	0.000000	0.400000	0.000000	0.302000	0.000000	0.000000	-0.000000	
1.974000	-0.000000	-0.000000	0.000000	0.200000	0.000000	-0.300000	0.000000	0.000000	-0.000000	-1.656960	379.865479	24.999447	0.216257	0.000000	-1.429374	0.000027	-5.325858	0.000004	-0.190877	345.788208	-34.190613	0.217398	0.000000	-0.955219	0.000012	5.697234	0.000005	-0.000000	-0.000000	0.000000	0.200000	0.000000	0.904000	0.000000	0.000000	-0.000000	-0.000000	-0.000000	0.000000	0.400000	0.000000	0.302000	0.000000	0.000000	-0.000000	
1.975000	-0.000000	-0.000000	0.000000	0.200000	0.000000	-0.300000	0.000000	0.000000	-0.000000	-1.335553	378.586243	25.481728	0.215762	0.000000	-1.429373	0.000059	-5.213471	0.000004	-0.193966	344.828857	-34.512703	0.217799	0.000000	-0.954511	0.000024	5.587128	0.000006	-0.000000	-0.000000	0.000000	0.200000	0.000000	0.904000	0.000000	0.000000	-0.000000	-0.000000	-0.000000	0.000000	0.400000	0.000000	0.302000	0.000000	0.000000	-0.000000	
1.976000	-0.000000	-0.000000	0.000000	0.200000	0.000000	-0.300000	0.000000	0.000000	-0.000000	-1.496765	377.947510	25.320179	0.215550	0.000000	-1.428599	0.000052	-5.282956	0.000003	-0.677094	344.186401	-33.545418	0.218006	0.000000	-0.953761	0.000013	5.737365	0.000002	-0.000000	-0.000000	0.000000	0.200000	0.000000	0.904000	0.000000	0.000000	-0.000000	-0.000000	-0.000000	0.000000	0.400000	0.000000	0.302000	0.000000	0.000000	-0.000000	
1.977000	-0.000000	-0.000000	0.000000	0.200000	0.000000	-0.300000	0.000000	0.000000	-0.000000	-1.013636	377.626923	25.802458	0.215124	0.000000	-1.428296	0.000045	-5.256338	0.000005	-0.350375	344.831543	-34.512703	0.217335	0.000000	-0.954163	0.000024	5.805614	0.000005	-0.000000	-0.000000	0.000000	0.200000	0.000000	0.904000	0.000000	0.000000	-0.000000	-0.000000	-0.000000	0.000000	0.400000	0.000000	0.302000	0.000000	0.000000	-0.000000	
1.978000	-0.000000	-0.000000	0.000000	0.200000	0.000000	-0.300000	0.000000	0.000000	-0.000000	-1.334534	381.135040	25.159306	0.215086	0.000000	-1.429907	0.000036	-5.435098	0.000003	-1.002267	346.754272	-33.061775	0.216925	0.000000	-0.954035	0.000014	5.664484	0.000003	-0.000000	-0.000000	0.000000	0.200000	0.000000	0.904000	0.000000	0.000000	-0.000000	-0.000000	-0.000000	0.000000	0.400000	0.000000	0.302000	0.000000	0.000000	-0.000000	
1.979000	-0.000000	-0.000000	0.000000	0.200000	0.000000	-0.300000	0.000000	0.000000	-0.000000	-0.691720	379.543274	25.159643	0.215698	0.000000	-1.429111	0.000028	-5.236310	0.000005	-0.516051	346.109802	-34.997364	0.217473	0.000000	-0.954032	-0.000002	5.607293	0.000006	-0.000000	-0.000000	0.000000	0.200000	0.000000	0.904000	0.000000	0.000000	-0.000000	-0.000000	-0.000000	0.000000	0.400000	0.000000	0.302000	0.000000	0.000000	-0.000000	
1.980000	-0.000000	-0.000000	0.000000	0.200000	0.000000	-0.300000	0.000000	0.000000	-0.000000	-0.691720	380.494293	24.998432	0.214959	0.000000	-1.428486	-0.000007	-5.273610	0.000004	-0.353464	345.153809	-34.350128	0.216988	0.000000	-0.953920	-0.000001	5.719508	0.000005	-0.000000	-0.000000	0.000000	0.200000	0.000000	0.904000	0.000000	0.000000	-0.000000	-0.000000	-0.000000	0.000000	0.400000	0.000000	0.302000	0.000000	0.000000	-0.000000	
1.981000	-0.000000	-0.000000	0.000000	0.200000	0.000000	-0.300000	0.000000	0.000000	-0.000000	-0.369804	378.261414	25.320854	0.214997	0.000000	-1.428816	0.000002	-5.139321	0.000003	-0.835047	344.187744	-34.351147	0.217531	0.000000	-0.953882	0.000016	5.885853	0.000004	-0.000000	-0.000000	0.000000	0.200000	0.000000	0.904000	0.000000	0.000000	-0.000000	-0.000000	-0.000000	0.000000	0.400000	0.000000	0.302000	0.000000	0.000000	-0.000000	
1.982000	-0.000000	-0.000000	0.000000	0.200000	0.000000	-0.300000	0.000000	0.000000	-0.000000	-0.852424	380.498596	25.320515	0.215184	0.000000	-1.430417	0.000034	-5.249571	0.000005	0.131208	344.829895	-33.866486	0.217407	0.000000	-0.954075	0.000002	5.687915	0.000001	-0.000000	-0.000000	0.000000	0.200000	0.000000	0.904000	0.000000	0.000000	-0.000000	-0.000000	-0.000000	0.000000	0.400000	0.000000	0.302000	0.000000	0.000000	-0.000000	
